<svg xmlns="http://www.w3.org/2000/svg" viewBox="0 0 420 280" role="img" aria-label="Tasa de ocupación · Derecho"><title>Tasa de ocupación · Derecho</title><desc>México, cohorte profesional terminada, edad conocida 15+, todos los sexos registrados. ENOE 2024-T3 a 2026-T2. Intervalos del 90%, precisión no oficial REVIEW. Una cruz señala un dato no disponible.</desc><rect width="420" height="280" fill="#fff"/><path d="M48 224.0H398" stroke="#e0e7ef" stroke-width="1"/><text x="40" y="228.0" text-anchor="end" fill="#55647a" font-size="14" font-family="system-ui">0</text><path d="M48 173.0H398" stroke="#e0e7ef" stroke-width="1"/><text x="40" y="177.0" text-anchor="end" fill="#55647a" font-size="14" font-family="system-ui">25</text><path d="M48 122.0H398" stroke="#e0e7ef" stroke-width="1"/><text x="40" y="126.0" text-anchor="end" fill="#55647a" font-size="14" font-family="system-ui">50</text><path d="M48 71.0H398" stroke="#e0e7ef" stroke-width="1"/><text x="40" y="75.0" text-anchor="end" fill="#55647a" font-size="14" font-family="system-ui">75</text><path d="M48 20.0H398" stroke="#e0e7ef" stroke-width="1"/><text x="40" y="24.0" text-anchor="end" fill="#55647a" font-size="14" font-family="system-ui">100</text><text x="48" y="12" fill="#55647a" font-size="12" font-family="system-ui">%</text><text x="48.0" y="246" text-anchor="middle" fill="#55647a" font-size="16" font-family="system-ui">T3</text><path d="M48.0 58.7V65.4M44.0 58.7h8M44.0 65.4h8" stroke="#3659d9" stroke-opacity=".53" stroke-width="2" fill="none"/><circle cx="48.0" cy="62.0" r="4.2" fill="#3659d9" stroke="#fff" stroke-width="1.5"/><text x="98.0" y="246" text-anchor="middle" fill="#55647a" font-size="16" font-family="system-ui">T4</text><path d="M48.0 62.0L98.0 68.7" fill="none" stroke="#3659d9" stroke-width="2.5"/><path d="M98.0 64.7V72.9M94.0 64.7h8M94.0 72.9h8" stroke="#3659d9" stroke-opacity=".53" stroke-width="2" fill="none"/><circle cx="98.0" cy="68.7" r="4.2" fill="#3659d9" stroke="#fff" stroke-width="1.5"/><text x="148.0" y="246" text-anchor="middle" fill="#55647a" font-size="16" font-family="system-ui">T1</text><path d="M98.0 68.7L148.0 69.5" fill="none" stroke="#3659d9" stroke-width="2.5"/><path d="M148.0 65.6V73.7M144.0 65.6h8M144.0 73.7h8" stroke="#3659d9" stroke-opacity=".53" stroke-width="2" fill="none"/><circle cx="148.0" cy="69.5" r="4.2" fill="#3659d9" stroke="#fff" stroke-width="1.5"/><text x="198.0" y="246" text-anchor="middle" fill="#55647a" font-size="16" font-family="system-ui">T2</text><path d="M148.0 69.5L198.0 68.8" fill="none" stroke="#3659d9" stroke-width="2.5"/><path d="M198.0 65.0V72.9M194.0 65.0h8M194.0 72.9h8" stroke="#3659d9" stroke-opacity=".53" stroke-width="2" fill="none"/><circle cx="198.0" cy="68.8" r="4.2" fill="#3659d9" stroke="#fff" stroke-width="1.5"/><text x="248.0" y="246" text-anchor="middle" fill="#55647a" font-size="16" font-family="system-ui">T3</text><path d="M198.0 68.8L248.0 71.4" fill="none" stroke="#3659d9" stroke-width="2.5"/><path d="M248.0 67.5V75.4M244.0 67.5h8M244.0 75.4h8" stroke="#3659d9" stroke-opacity=".53" stroke-width="2" fill="none"/><circle cx="248.0" cy="71.4" r="4.2" fill="#3659d9" stroke="#fff" stroke-width="1.5"/><text x="298.0" y="246" text-anchor="middle" fill="#55647a" font-size="16" font-family="system-ui">T4</text><path d="M248.0 71.4L298.0 69.6" fill="none" stroke="#3659d9" stroke-width="2.5"/><path d="M298.0 65.8V73.6M294.0 65.8h8M294.0 73.6h8" stroke="#3659d9" stroke-opacity=".53" stroke-width="2" fill="none"/><circle cx="298.0" cy="69.6" r="4.2" fill="#3659d9" stroke="#fff" stroke-width="1.5"/><text x="348.0" y="246" text-anchor="middle" fill="#55647a" font-size="16" font-family="system-ui">T1</text><path d="M298.0 69.6L348.0 68.0" fill="none" stroke="#3659d9" stroke-width="2.5"/><path d="M348.0 64.2V72.1M344.0 64.2h8M344.0 72.1h8" stroke="#3659d9" stroke-opacity=".53" stroke-width="2" fill="none"/><circle cx="348.0" cy="68.0" r="4.2" fill="#3659d9" stroke="#fff" stroke-width="1.5"/><text x="398.0" y="246" text-anchor="middle" fill="#55647a" font-size="16" font-family="system-ui">T2</text><path d="M348.0 68.0L398.0 69.2" fill="none" stroke="#3659d9" stroke-width="2.5"/><path d="M398.0 65.6V73.0M394.0 65.6h8M394.0 73.0h8" stroke="#3659d9" stroke-opacity=".53" stroke-width="2" fill="none"/><circle cx="398.0" cy="69.2" r="4.2" fill="#3659d9" stroke="#fff" stroke-width="1.5"/><text x="73.0" y="270" text-anchor="middle" fill="#55647a" font-size="15" font-family="system-ui">2024</text><text x="223.0" y="270" text-anchor="middle" fill="#55647a" font-size="15" font-family="system-ui">2025</text><text x="373.0" y="270" text-anchor="middle" fill="#55647a" font-size="15" font-family="system-ui">2026</text></svg>